<mxfile host="app.diagrams.net" agent="Mozilla/5.0 (Macintosh; Intel Mac OS X 10_15_7) AppleWebKit/537.36 (KHTML, like Gecko) Chrome/139.0.0.0 Safari/537.36" version="28.1.1">
  <diagram name="第 1 页" id="ok5eM8aEzvTDwAsDHWP3">
    <mxGraphModel dx="1473" dy="754" grid="1" gridSize="10" guides="1" tooltips="1" connect="1" arrows="1" fold="1" page="1" pageScale="1" pageWidth="1654" pageHeight="1169" math="0" shadow="0">
      <root>
        <mxCell id="0" />
        <mxCell id="1" parent="0" />
        <mxCell id="xMNQ2bIqRYN8AZYjcFee-29" value="" style="rounded=0;whiteSpace=wrap;html=1;dashed=1;" parent="1" vertex="1">
          <mxGeometry x="300" y="510" width="650" height="330" as="geometry" />
        </mxCell>
        <mxCell id="xMNQ2bIqRYN8AZYjcFee-4" style="edgeStyle=orthogonalEdgeStyle;rounded=0;orthogonalLoop=1;jettySize=auto;html=1;exitX=0.5;exitY=1;exitDx=0;exitDy=0;entryX=0.5;entryY=0;entryDx=0;entryDy=0;" parent="1" source="xMNQ2bIqRYN8AZYjcFee-2" target="xMNQ2bIqRYN8AZYjcFee-3" edge="1">
          <mxGeometry relative="1" as="geometry" />
        </mxCell>
        <mxCell id="xMNQ2bIqRYN8AZYjcFee-2" value="选择实例名，库名，表名，目标库名，表名(支持分库分表)" style="rounded=0;whiteSpace=wrap;html=1;fillColor=#dae8fc;strokeColor=#6c8ebf;shadow=1;fontFamily=Tahoma;" parent="1" vertex="1">
          <mxGeometry x="770" y="50" width="190" height="60" as="geometry" />
        </mxCell>
        <mxCell id="KAoqbuFpRRKg9R8WhbED-4" style="edgeStyle=orthogonalEdgeStyle;rounded=0;orthogonalLoop=1;jettySize=auto;html=1;exitX=0.5;exitY=1;exitDx=0;exitDy=0;entryX=0.5;entryY=0;entryDx=0;entryDy=0;" edge="1" parent="1" source="xMNQ2bIqRYN8AZYjcFee-3" target="KAoqbuFpRRKg9R8WhbED-3">
          <mxGeometry relative="1" as="geometry" />
        </mxCell>
        <mxCell id="xMNQ2bIqRYN8AZYjcFee-3" value="&lt;br&gt;1 查询sm获得mysql用户名/密码&lt;div&gt;2 查询archery new获得&lt;span style=&quot;background-color: transparent; color: light-dark(rgb(0, 0, 0), rgb(255, 255, 255));&quot;&gt;，唯一键，排序键&lt;br&gt;3 如果支持分库分表，查询archery new获得所有表&lt;/span&gt;&lt;/div&gt;" style="rounded=0;whiteSpace=wrap;html=1;fillColor=#dae8fc;strokeColor=#6c8ebf;shadow=1;fontFamily=Tahoma;" parent="1" vertex="1">
          <mxGeometry x="470" y="190" width="310" height="60" as="geometry" />
        </mxCell>
        <mxCell id="xMNQ2bIqRYN8AZYjcFee-16" style="edgeStyle=orthogonalEdgeStyle;rounded=0;orthogonalLoop=1;jettySize=auto;html=1;exitX=0.5;exitY=1;exitDx=0;exitDy=0;entryX=0.5;entryY=0;entryDx=0;entryDy=0;" parent="1" source="xMNQ2bIqRYN8AZYjcFee-5" target="xMNQ2bIqRYN8AZYjcFee-19" edge="1">
          <mxGeometry relative="1" as="geometry">
            <mxPoint x="645" y="820" as="targetPoint" />
          </mxGeometry>
        </mxCell>
        <mxCell id="xMNQ2bIqRYN8AZYjcFee-5" value="跨站的使用rds-snapshot导入" style="rounded=0;whiteSpace=wrap;html=1;fillColor=#dae8fc;strokeColor=#6c8ebf;shadow=1;fontFamily=Tahoma;" parent="1" vertex="1">
          <mxGeometry x="330" y="655" width="190" height="60" as="geometry" />
        </mxCell>
        <mxCell id="xMNQ2bIqRYN8AZYjcFee-11" style="edgeStyle=orthogonalEdgeStyle;rounded=0;orthogonalLoop=1;jettySize=auto;html=1;exitX=0.5;exitY=1;exitDx=0;exitDy=0;" parent="1" source="xMNQ2bIqRYN8AZYjcFee-6" edge="1">
          <mxGeometry relative="1" as="geometry">
            <mxPoint x="625" y="530" as="targetPoint" />
          </mxGeometry>
        </mxCell>
        <mxCell id="xMNQ2bIqRYN8AZYjcFee-6" value="通过http接口调用cdc创建表和创建同步任务，&lt;div&gt;cdc task id&lt;/div&gt;" style="rounded=0;whiteSpace=wrap;html=1;fillColor=#dae8fc;strokeColor=#6c8ebf;shadow=1;fontFamily=Tahoma;" parent="1" vertex="1">
          <mxGeometry x="530" y="410" width="190" height="60" as="geometry" />
        </mxCell>
        <mxCell id="xMNQ2bIqRYN8AZYjcFee-18" style="edgeStyle=orthogonalEdgeStyle;rounded=0;orthogonalLoop=1;jettySize=auto;html=1;exitX=0.5;exitY=1;exitDx=0;exitDy=0;" parent="1" source="xMNQ2bIqRYN8AZYjcFee-8" target="xMNQ2bIqRYN8AZYjcFee-19" edge="1">
          <mxGeometry relative="1" as="geometry">
            <mxPoint x="645" y="820" as="targetPoint" />
          </mxGeometry>
        </mxCell>
        <mxCell id="xMNQ2bIqRYN8AZYjcFee-8" value="主站的直接使用db-archiver实时导入" style="rounded=0;whiteSpace=wrap;html=1;fillColor=#dae8fc;strokeColor=#6c8ebf;shadow=1;fontFamily=Tahoma;" parent="1" vertex="1">
          <mxGeometry x="732" y="655" width="190" height="60" as="geometry" />
        </mxCell>
        <mxCell id="xMNQ2bIqRYN8AZYjcFee-13" style="edgeStyle=orthogonalEdgeStyle;rounded=0;orthogonalLoop=1;jettySize=auto;html=1;exitX=0.5;exitY=1;exitDx=0;exitDy=0;entryX=0.5;entryY=0;entryDx=0;entryDy=0;" parent="1" source="xMNQ2bIqRYN8AZYjcFee-12" target="xMNQ2bIqRYN8AZYjcFee-5" edge="1">
          <mxGeometry relative="1" as="geometry" />
        </mxCell>
        <mxCell id="xMNQ2bIqRYN8AZYjcFee-14" style="edgeStyle=orthogonalEdgeStyle;rounded=0;orthogonalLoop=1;jettySize=auto;html=1;exitX=0.5;exitY=1;exitDx=0;exitDy=0;" parent="1" source="xMNQ2bIqRYN8AZYjcFee-12" target="xMNQ2bIqRYN8AZYjcFee-8" edge="1">
          <mxGeometry relative="1" as="geometry" />
        </mxCell>
        <mxCell id="xMNQ2bIqRYN8AZYjcFee-12" value="存量数据导入模块" style="rounded=0;whiteSpace=wrap;html=1;fillColor=#dae8fc;strokeColor=#6c8ebf;shadow=1;fontFamily=Tahoma;" parent="1" vertex="1">
          <mxGeometry x="530" y="530" width="190" height="60" as="geometry" />
        </mxCell>
        <mxCell id="xMNQ2bIqRYN8AZYjcFee-19" value="1 callback回调，自定义实现调用cdc，连接数据库&lt;br&gt;1 添加&lt;span style=&quot;background-color: transparent;&quot;&gt;is_databend_delete bool NOT NULL default false&lt;/span&gt;&lt;div&gt;databend_dt TIMESTAMP&amp;nbsp; DEFAULT CURRENT_TIMESTAMP字段&lt;br&gt;2 执行compact, recluster final&lt;span style=&quot;background-color: transparent; color: light-dark(rgb(0, 0, 0), rgb(255, 255, 255));&quot;&gt;开启增量&lt;/span&gt;&lt;/div&gt;&lt;div&gt;&lt;div&gt;2 如果存量导入失败，也需要&lt;span style=&quot;background-color: transparent; color: light-dark(rgb(0, 0, 0), rgb(255, 255, 255));&quot;&gt;callback回调通知&lt;/span&gt;&lt;/div&gt;&lt;/div&gt;" style="rounded=0;whiteSpace=wrap;html=1;fillColor=#dae8fc;strokeColor=#6c8ebf;shadow=1;fontFamily=Tahoma;" parent="1" vertex="1">
          <mxGeometry x="390" y="910" width="500" height="130" as="geometry" />
        </mxCell>
        <mxCell id="xMNQ2bIqRYN8AZYjcFee-22" value="先不在自动化流程里解决的问题：&lt;br&gt;1 maxwell 消息同步配置&lt;br&gt;2 用户访问databend表的权限和网络权限&lt;div&gt;3 cdc的批次大小&lt;/div&gt;" style="whiteSpace=wrap;html=1;aspect=fixed;align=left;" parent="1" vertex="1">
          <mxGeometry x="20" y="70" width="230" height="230" as="geometry" />
        </mxCell>
        <mxCell id="xMNQ2bIqRYN8AZYjcFee-24" value="&lt;div&gt;&lt;br&gt;&lt;/div&gt;&lt;div&gt;&lt;br&gt;&lt;/div&gt;1 所有流程如果出现异常终止都需要抛出，方便用户来找我们，存量导入模块通过callback抛出&lt;br&gt;2 整个服务要打包成一个无状态微服务架构&lt;br&gt;&lt;br&gt;&lt;br&gt;&lt;b&gt;存量导入模块特别要求：&lt;br&gt;&lt;/b&gt;1 整个存量数据导入模块可以以一个core包的方式提供出来，方便微服务集成，也方便未来代码同步merge&lt;br&gt;2 成功或失败都通过callback抛出&lt;div&gt;3 支持无状态，多个节点任务状态共享&lt;br&gt;&lt;div&gt;4 存量数据导入core包需要提供的接口：&lt;/div&gt;&lt;div&gt;&amp;nbsp; &amp;nbsp; a) 同步任务添加&lt;br&gt;&amp;nbsp; &amp;nbsp; b) 同步任务强制终止&lt;br&gt;&amp;nbsp; &amp;nbsp; c) 任务状态查询&lt;/div&gt;&lt;/div&gt;&lt;div&gt;xxl-job task管理表&lt;/div&gt;&lt;div&gt;&lt;br&gt;&lt;/div&gt;" style="whiteSpace=wrap;html=1;aspect=fixed;align=left;" parent="1" vertex="1">
          <mxGeometry x="1000" y="250" width="230" height="230" as="geometry" />
        </mxCell>
        <mxCell id="xMNQ2bIqRYN8AZYjcFee-25" value="databend团队实现和维护" style="text;html=1;align=center;verticalAlign=middle;whiteSpace=wrap;rounded=0;" parent="1" vertex="1">
          <mxGeometry x="310" y="540" width="150" height="30" as="geometry" />
        </mxCell>
        <mxCell id="xMNQ2bIqRYN8AZYjcFee-27" style="edgeStyle=orthogonalEdgeStyle;rounded=0;orthogonalLoop=1;jettySize=auto;html=1;exitX=0.5;exitY=1;exitDx=0;exitDy=0;" parent="1" edge="1">
          <mxGeometry relative="1" as="geometry">
            <mxPoint x="640" y="1060" as="sourcePoint" />
            <mxPoint x="640" y="1060" as="targetPoint" />
          </mxGeometry>
        </mxCell>
        <mxCell id="KAoqbuFpRRKg9R8WhbED-2" style="edgeStyle=orthogonalEdgeStyle;rounded=0;orthogonalLoop=1;jettySize=auto;html=1;exitX=0.5;exitY=1;exitDx=0;exitDy=0;entryX=0.5;entryY=0;entryDx=0;entryDy=0;" edge="1" parent="1" source="KAoqbuFpRRKg9R8WhbED-1" target="xMNQ2bIqRYN8AZYjcFee-3">
          <mxGeometry relative="1" as="geometry" />
        </mxCell>
        <mxCell id="KAoqbuFpRRKg9R8WhbED-1" value="ai bot输入实例名，库名，表名，目标库名，表名" style="rounded=0;whiteSpace=wrap;html=1;fillColor=#dae8fc;strokeColor=#6c8ebf;shadow=1;fontFamily=Tahoma;" vertex="1" parent="1">
          <mxGeometry x="330" y="50" width="190" height="60" as="geometry" />
        </mxCell>
        <mxCell id="KAoqbuFpRRKg9R8WhbED-5" style="edgeStyle=orthogonalEdgeStyle;rounded=0;orthogonalLoop=1;jettySize=auto;html=1;exitX=0.5;exitY=1;exitDx=0;exitDy=0;" edge="1" parent="1" source="KAoqbuFpRRKg9R8WhbED-3" target="xMNQ2bIqRYN8AZYjcFee-6">
          <mxGeometry relative="1" as="geometry" />
        </mxCell>
        <mxCell id="KAoqbuFpRRKg9R8WhbED-3" value="1 判断是否是跨站&lt;br&gt;2 对cloud业务强制transform转化datetime的字段&lt;div&gt;&lt;br/&gt;&lt;/div&gt;" style="rounded=0;whiteSpace=wrap;html=1;fillColor=#dae8fc;strokeColor=#6c8ebf;shadow=1;fontFamily=Tahoma;" vertex="1" parent="1">
          <mxGeometry x="470" y="300" width="310" height="60" as="geometry" />
        </mxCell>
      </root>
    </mxGraphModel>
  </diagram>
</mxfile>
